<svg width="183" height="150" viewBox="0 0 183 150" fill="none" xmlns="http://www.w3.org/2000/svg">
<path d="M123.615 14.3003C109.317 28.1921 102.585 45.1082 98.6223 64.359C98.0384 67.1756 98.5973 73.1411 94.8517 73.7476C89.1124 74.6782 85.9257 69.9174 81.1624 67.9566C72.9288 64.5667 65.2541 66.5857 57.4876 70.0753C31.9192 81.5576 20.7492 108.17 17.3039 134.458C20.8243 131.417 21.2247 125.21 27.2894 127.03C31.2519 128.218 24.9369 134.624 23.719 136.651C21.3248 140.639 19.2143 144.835 17.1037 148.981C9.80444 152.803 8.72831 144.985 6.31746 140.191C5.04113 137.64 -0.648157 127.811 0.0609176 125.701C0.536415 124.272 4.39045 124.87 5.31641 126.016L10.4718 135.82C13.7753 117.376 18.2549 99.1883 30.5094 84.4324C44.107 68.0563 71.9444 54.0565 91.2479 69.2444C91.6901 68.9869 91.6734 68.7542 91.7818 68.372C93.3501 62.8635 93.7672 56.5241 95.4357 50.7829C102.109 27.8847 126.293 -9.66141 154.881 2.29452C172.675 9.73063 182.51 37.4644 182.293 55.3609C182.276 56.4909 182.035 62.5145 181.801 62.9134C180.95 64.3341 177.021 63.8522 176.329 62.4647C175.344 60.4873 176.604 56.9645 176.562 54.987C175.987 26.7215 155.115 -16.2916 123.623 14.3003H123.615Z" fill="#C2D600"/>
</svg>
