<svg width="218" height="124" viewBox="0 0 218 124" fill="none" xmlns="http://www.w3.org/2000/svg">
<path d="M15.6336 8.84319C17.9823 10.764 21.5621 14.2809 23.6721 16.5285C26.221 19.2478 28.617 22.5222 30.9831 25.4285C31.8808 25.0532 31.5048 23.8374 31.8015 22.9942C33.8503 17.2557 37.6706 12.021 42.9327 8.83618C46.7514 6.52877 53.2285 5.29811 55.3343 10.4343C55.6796 11.269 55.6143 13.4021 56.2783 13.535C61.3772 11.3537 68.8423 12.4876 67.0688 19.591C73.3052 16.8244 79.4257 19.6732 78.8723 26.9779C82.2989 24.2217 86.8306 19.8632 91.2941 19.1179C101.974 17.3273 100.955 26.2973 96.5761 32.7425C88.5823 44.4938 65.8764 66.7694 53.5852 73.4203C50.3352 75.1788 43.7599 79.0444 40.5993 76.2991C40.5485 75.4001 45.6531 73.6144 46.7474 73.0643C57.6481 67.6119 66.6097 58.8236 75.1214 50.2068C80.4563 44.804 87.8679 37.2569 91.8586 30.9273C93.6858 28.0263 94.7163 25.2541 93.4066 21.8132C87.5253 24.2455 82.9403 29.2954 78.525 33.7503C76.6102 35.6832 76.1589 35.7315 74.3618 37.1701C70.8105 40.0057 70.4074 44.0685 64.73 46.6437C60.4215 48.5994 53.6609 48.6409 51.1891 43.872C50.8639 43.2502 50.8849 41.9507 50.4527 41.6862C49.9869 41.4043 48.4167 41.7186 47.5631 41.5653C45.4288 41.1756 43.1768 39.9561 41.7125 38.3684C41.35 37.9761 40.4168 36.1663 40.1641 35.9682C39.8223 35.6979 38.8307 36.3323 38.2271 36.3318C36.3385 36.3353 33.7832 35.9595 32.3137 34.6966C31.2148 33.7476 30.5354 31.6425 29.5232 30.3246C26.6502 26.5938 22.758 22.0453 19.5577 18.5756C17.3822 16.2154 12.4086 10.8921 10.01 9.2081C8.44056 8.10738 7.73931 8.91797 6.8526 10.3829C5.11385 13.2458 5.51218 16.1347 6.38747 19.1749C8.64404 26.9821 14.0411 33.9595 18.0309 40.9552C16.6928 45.0128 13.1465 48.3348 11.7351 52.2608C11.0796 54.0939 10.456 56.9376 10.184 58.8827C9.91209 60.8277 11.1158 62.1984 7.72059 61.8826C5.29195 61.6609 5.42261 60.1468 5.53324 58.1147C5.93467 51.0727 9.42135 47.2222 12.4909 41.3083C10.7899 38.7556 9.37726 36.0417 7.83253 33.3946C5.2743 29.0013 2.74308 25.5408 1.30517 20.3946C-1.71392 9.58541 5.83555 0.841672 15.6284 8.86299L15.6336 8.84319ZM37.4922 33.1528C43.0966 30.3486 50.1392 21.0855 50.4381 14.777C50.6405 10.5193 49.8065 8.83942 45.9033 11.4508C39.554 15.7044 34.5548 25.6616 37.4922 33.1528ZM45.3546 33.0865C47.4874 44.0431 54.647 36.6158 58.0415 31.1161C60.236 27.5621 62.4455 21.8004 62.3535 17.6069C62.2931 14.8262 61.3113 14.9018 58.9436 15.9419C54.619 17.8467 53.0255 24.5168 49.8874 27.9297L45.3546 33.0865ZM70.0421 35.1802C71.869 32.0716 74.614 27.0741 73.4443 23.4879C72.7183 21.2625 71.7373 20.9421 69.8163 22.1679C65.5189 24.9083 62.6791 33.3064 58.8279 37.4462C58.3542 37.9567 57.5882 38.0575 57.1582 38.6431C55.5278 40.8629 56.3262 45.1413 59.3675 45.0967C63.2193 45.0394 68.2563 38.2213 70.0421 35.1802Z" fill="#C2D600"/>
<path d="M212.284 41.0369C212.355 41.1309 213.294 42.9898 213.331 43.1018C216.065 51.5372 204.981 63.8486 199.592 69.6896C199.071 70.2515 198.233 70.5202 197.662 71.1307C197.09 71.7411 193.837 75.3228 193.76 75.6145C193.375 76.9797 197.445 83.9459 198.15 85.8177C199.309 88.8792 199.88 94.1827 199.668 97.5399C199.456 100.897 198.278 102.552 194.567 101.11C192.328 100.236 193.486 99.9315 193.574 98.3442C193.733 95.523 193.435 90.4702 192.753 87.7444C192.07 85.0187 187.032 76.2201 187.453 74.3928C191.733 68.7497 197.822 63.8599 201.874 58.117C204.725 54.0791 209.163 47.4951 206.837 42.5464C205.131 38.9186 203.345 40.2899 200.566 41.9458C192.634 46.6676 182.89 54.7261 175.903 60.8778C174.407 62.1962 173.379 64.171 171.59 65.1611C169.802 66.1512 166.853 66.218 164.797 65.8612C164.158 65.7472 163.504 64.9251 162.942 65.1368C162.518 65.2983 162.182 66.3269 161.694 66.7626C159.381 68.8302 156.442 70.1488 153.293 70.0741C152.545 70.0552 151.429 69.4257 151.073 69.5296C150.741 69.6266 150.103 71.3215 149.724 71.7985C145.394 77.189 137.421 74.9861 133.469 70.1667C131.838 68.1775 130.445 62.7244 129.566 61.7742C128.05 60.1512 128.534 61.128 127.156 58.859C124.351 54.2483 121.819 49.1777 117.292 45.987C116.472 47.2302 115.817 48.8192 115.579 50.3096C114.843 54.9307 120.91 65.6016 123.131 69.9002C130.572 84.2959 138.318 99.4833 152.194 108.94L152.774 110.112C149.618 112.26 145.583 108.233 143.185 106.197C132.093 96.787 116.482 70.1145 112.128 56.1976C110.971 52.5122 110.304 46.3461 114.481 44.3312C120.197 41.5712 125.409 48.3281 128.158 52.5196C129.049 46.4681 134.861 42.92 140.217 46.5137C141.15 39.6145 146.93 39.3792 152.299 41.6924C155.064 33.4145 162.611 34.8454 168.094 39.8427C172.154 43.5402 173.85 48.0693 174.78 53.3272C174.947 54.2838 174.228 55.5013 175.354 55.5523C181.18 50.6089 187.094 45.7505 193.595 41.7002C198.866 38.4133 204.036 35.152 210.066 39.0648C210.735 39.4967 211.818 40.4172 212.292 41.0324L212.284 41.0369ZM159.801 38.6161C157.83 38.5372 157.095 43.2449 156.999 44.7435C156.669 49.8078 160.971 57.8875 164.593 61.333C166.374 63.0249 167.117 63.3797 168.193 60.4941C169.645 56.5922 169.129 49.6912 167.203 45.9656C166.212 44.0406 162.001 38.6951 159.801 38.6161ZM158.07 61.3284C157.45 59.2969 155.715 57.5977 154.792 55.7299C153.045 52.1895 152.194 45.3271 148.734 43.4037C146.412 42.1095 145.719 42.2585 145.064 44.7162C143.746 49.6576 145.343 58.7919 148.142 63.0777C148.786 64.069 150.51 66.1952 151.488 66.7167C154.126 68.1244 158.271 64.5135 158.479 61.9015C158.5 61.6066 158.11 61.4772 158.064 61.3264L158.07 61.3284ZM135.493 47.41C133.836 47.4294 132.447 52.5281 132.429 54.008C132.406 55.9602 134.542 63.67 135.434 65.5427C136.271 67.2908 139.077 71.2126 140.823 71.939C142.67 72.7112 144.946 70.6464 145.508 68.9422C146.391 66.2832 143.651 63.8961 142.574 61.5133C140.856 57.6952 140.493 51.7966 137.563 48.6396C137.118 48.1559 136.143 47.3982 135.495 47.4035L135.493 47.41Z" fill="#C2D600"/>
</svg>
