<svg width="187" height="165" viewBox="0 0 187 165" fill="none" xmlns="http://www.w3.org/2000/svg">
<path d="M128.245 77.3336C128.4 77.7263 128.898 78.0639 129.092 78.5515C129.842 80.4621 134.389 93.4049 135.332 93.5622C140.535 91.2296 145.25 87.806 150.332 85.2762C152.925 83.9892 155.744 83.1642 158.348 81.9475C160.213 81.0789 166.455 77.1375 167.949 77.5041C168.712 77.6932 170.501 79.075 170.447 79.8495C170.406 80.4008 169.529 81.0748 169.364 82.1036C169.198 83.1323 169.609 85.2535 169.54 86.4855C168.905 97.4856 168.997 108.464 169.292 119.47C168.655 121.771 167.149 121.437 165.234 121.098C149.353 128.345 135.805 139.488 121.11 148.594C118.881 149.973 116.795 151.572 114.404 150.065C113.341 149.395 113.484 148.513 113.022 148.055C102.99 138.117 94.483 128.042 85.7727 116.984C84.0126 114.753 82.1069 112.455 80.1385 110.481C79.464 110.228 70.7613 111.676 69.269 111.949C59.1391 113.817 48.2478 116.364 38.1792 118.725C34.3888 119.618 31.3917 121.82 27.7315 119.519C26.1332 118.513 22.6488 111.353 21.8248 109.32C20.5313 106.123 19.984 102.726 18.8452 99.5688C17.2935 95.2736 9.9083 84.7064 10.2608 81.0919C10.6369 77.2654 21.3942 71.4827 24.5634 69.2095C33.4609 62.828 42.2427 56.4203 51.3094 50.2455C53.9797 48.4277 56.4216 45.8018 59.5414 44.5616C60.3026 44.2578 61.5431 44.3438 61.6319 44.2797C61.7583 44.1922 61.2395 42.4808 63.7653 42.8377C66.5226 43.225 66.8125 48.0143 67.5941 50.208C70.3352 57.8916 73.484 65.4401 75.6606 73.3281C76.396 73.7204 79.9257 71.9861 81.0538 71.6211C88.5455 69.1941 96.2855 67.2076 103.631 64.3618C106.44 63.2759 116.18 58.1473 118.304 58.5166C122.034 59.1669 124.473 66.5603 125.771 69.7885C126.747 72.2201 127.31 74.9903 128.245 77.3336ZM130.933 95.8854C130.199 90.8361 127.055 85.2284 125.21 80.4109C123.591 76.1802 122.151 70.0952 120.168 66.25C119.929 65.7834 119.47 64.9011 118.792 65.0947L83.2273 108.415L91.1827 118.824C92.1936 118.52 92.1863 117.357 92.7764 116.581C95.031 113.654 101.145 107.456 104.941 107.358C107.735 107.289 108.9 108.523 110.874 110.169C112.09 106.897 115.989 98.843 120.375 100.732C123.25 101.969 123.741 104.883 124.009 107.615C124.806 107.272 127.329 107.635 127.72 107.34C128.753 106.559 130.272 98.1493 131.275 96.7481C131.568 96.2934 130.935 96.0256 130.918 95.8873L130.933 95.8854ZM36.1262 115.369C36.2824 115.696 37.8838 115.322 38.2903 115.253C44.8515 114.128 51.9466 111.95 58.5368 110.556C65.1269 109.162 72.141 108.189 78.8757 106.677L113.366 64.6085C111.826 65.9299 102.938 68.1716 102.258 68.9303C101.474 69.7989 102.761 70.0632 102.935 71.212C103.309 73.6874 99.8339 77.116 98.0086 78.6009C96.1833 80.0858 92.5143 81.5284 91.3466 83.2312C89.9785 85.2303 89.6066 89.6681 88.2965 92.3342C84.8643 99.3188 78.7522 99.8387 72.1739 96.8367C70.4272 96.0427 67.4903 93.2338 66.0726 93.5038C63.6831 93.9664 57.7987 98.475 55.0633 99.8952C53.4624 100.725 51.3703 101.094 49.9791 101.954C48.0606 103.141 44.4006 106.989 42.5766 108.761C40.3736 110.899 38.1783 113.098 36.1197 115.367L36.1262 115.369ZM66.144 56.9678C65.0338 53.8131 63.7982 50.6802 62.7233 47.5086L30.0634 70.1921C29.62 70.9682 30.2694 70.7938 30.7667 71.0285C37.789 74.3124 35.079 79.3999 36.846 85.6003C37.4585 86.0079 44.1788 81.5452 47.7377 83.0314C52.327 84.9481 48.6932 89.2828 48.3032 92.5461C48.1712 93.6674 47.9701 97.7469 49.6222 96.2742L72.0424 74.6272C72.2202 74.1244 70.1972 69.6038 69.875 68.6451C68.5961 64.7622 67.4679 60.7857 66.1287 56.9697L66.144 56.9678ZM164.991 84.0614C164.49 83.7522 164.141 83.8269 163.613 83.9488C162.489 84.2197 157.223 86.7286 155.798 87.4147C148.978 90.7037 142.09 95.1218 135.48 98.8374L131.723 110.085C133.389 110.505 134.928 116.082 135.371 116.407C136 116.872 140.74 114.501 142.271 114.241C145.514 113.691 153.103 114.377 154.173 118.061C154.521 119.256 153.808 121.024 155.496 121.57L164.135 117.102L164.978 84.0568L164.991 84.0614ZM97.4849 71.0036L88.1043 73.3502C84.6798 74.6002 80.7464 76.2505 77.2241 77.2162C76.6143 77.3825 75.8028 77.0809 75.3347 77.2826C74.5796 77.6107 64.5187 87.5109 63.4934 88.7277C63.1732 89.114 62.8284 89.4035 62.7462 89.9474C68.6283 88.5821 71.8071 96.0458 77.569 95.2698C80.439 94.8816 83.1555 90.5236 84.2057 88.0521C85.0914 85.9631 84.7945 83.2503 85.9881 81.329C87.2971 79.2061 98.348 73.1746 97.4914 71.0059L97.4849 71.0036ZM44.3869 87.4589C42.07 87.4256 40.045 89.4129 37.6828 89.2167C29.6448 88.5561 32.3467 79.5649 30.883 74.5222C30.5161 73.2538 29.1512 73.7482 28.0849 74.0837C26.9107 74.4545 25.3017 75.8469 24.5628 76.0044C23.6107 76.204 22.731 75.555 21.8422 75.8871C21.6481 75.9581 19.1437 77.8052 18.7678 78.1204C16.9463 79.636 15.3052 80.8701 15.2625 83.4629C15.202 86.9162 20.9541 94.7683 22.5367 98.3325C24.4383 104.235 25.8538 110.245 29.0196 115.648L45.5219 99.9959C45.9005 99.1747 44.6341 98.7049 44.28 97.9406C43.9447 97.227 43.1926 93.7655 43.1904 92.92C43.1804 91.0579 43.7205 89.1773 44.4 87.4635L44.3869 87.4589ZM149.397 117.834C147.74 115.375 139.102 120.232 137.106 120.143C133.849 120.005 131.324 117.797 130.036 114.939L119.969 143.408C126.116 140.234 131.657 135.824 137.456 132.013C139.389 130.743 147.762 126.24 148.654 125.108C150.531 122.73 150.317 121.487 149.394 119.089C149.252 118.723 149.523 118.018 149.4 117.827L149.397 117.834ZM114.431 145.461L126.124 112.227C126.197 110.254 123.479 112.665 122.562 112.62C121.328 112.558 119.237 111.635 118.811 110.39C118.453 109.345 119.209 108.018 118.35 107.207C116.398 109.133 114.641 116.511 112.837 117.666C111.547 118.488 109.08 117.094 108.088 116.096C107.096 115.099 107.396 111.988 106.513 110.64C101.535 113.272 97.2186 117.917 94.7603 123.02C94.7149 124.311 104.393 134.294 105.945 136.054C108.671 139.149 110.92 143.051 114.431 145.461Z" fill="#C2D600"/>
<path d="M142.16 62.2412C145.695 60.3873 149.703 59.7059 153.282 57.8855C158.902 55.0276 169.291 49.5386 173.304 44.9864C178.658 38.9061 181.617 27.1963 178.004 19.7202C171.69 6.63886 153.516 1.78714 143.069 12.78C140.37 15.6202 139.875 17.644 138.866 21.3358C136.022 31.7224 136.179 43.9249 135.884 54.6382C135.846 55.9652 136.286 61.0142 136.984 61.961C137.682 62.9077 139.146 63.3707 140.263 63.3287C141.467 63.2824 140.999 62.6347 141.392 62.3452C141.563 62.218 141.969 62.3396 142.16 62.2412ZM140.719 58.8377C140.332 55.8839 141.202 53.0463 141.226 50.0927C141.34 37.1838 139.557 12.0653 156.917 9.66537C166.361 8.36278 175.869 16.952 175.487 26.3961C175.224 32.7951 173.007 39.17 168.549 43.8097C165.041 47.4534 152.219 54.6622 147.333 56.7733C145.262 57.6664 142.856 58.0542 140.727 58.8349L140.719 58.8377Z" fill="#C2D600"/>
<path d="M165.936 21.8222C162.376 19.3154 156.153 19.8352 153.644 23.5499C149.402 29.815 151.763 37.3014 159.602 38.3096C168.758 39.4883 172.939 26.7485 165.938 21.8169L165.936 21.8222ZM163.081 23.3021C165.306 24.5261 165.597 28.8185 164.714 30.9576C162.868 35.4325 156.154 38.3504 155.998 31.1313C155.931 27.9843 159.882 21.5479 163.079 23.3074L163.081 23.3021Z" fill="#C2D600"/>
</svg>
