<svg width="210" height="218" viewBox="0 0 210 218" fill="none" xmlns="http://www.w3.org/2000/svg">
<path d="M125.255 72.3653C150.125 84.5244 137.897 118.519 143.159 140.258C143.824 143.016 146.208 148.277 146.288 150.794C146.358 152.908 142.364 153.585 140.808 152.517C138.728 145.443 136.63 138.813 136.241 131.438C135.142 110.803 142.298 78.5843 114.887 72.3585C87.35 66.1095 60.7194 95.6409 71.1382 122.042C79.8845 144.219 99.8061 150.1 118.145 161.331C118.472 161.536 118.367 162.078 119.198 161.543C118.047 148.367 119.169 135.245 120.504 122.166C116.128 127 112.321 132.424 109.125 138.121C107.621 138.958 104.197 140.653 103.542 138.225L105.16 98.4786C104.726 98.1881 102.284 103.733 102.016 104.239C99.5146 109.024 96.9665 113.887 94.7709 118.884C93.6015 121.545 94.6557 122.734 90.2466 122.233C89.6629 121.299 89.8919 120.448 90.1942 119.478C91.1964 116.243 94.2502 110.599 95.8587 107.298C97.541 103.855 103.602 91.5486 105.789 89.4377C106.821 88.4412 108.889 87.5038 110.073 88.6753C111.555 90.1332 108.277 125.445 108.772 130.211L121.286 115.499C122.083 113.989 126.281 114.224 126.571 115.585C125.435 125.598 124.065 135.701 124.011 145.798C123.981 151.058 124.792 156.519 124.253 161.679C123.144 163.16 120.235 162.753 120.083 162.976C122.289 164.537 122.047 166.743 119.186 166.964C116.589 167.164 116.576 165.23 115.131 163.96C110.841 160.172 106.117 158.882 101.296 156.416C84.0881 147.613 66.041 134.581 64.1674 113.581C61.4462 83.1213 98.2236 59.132 125.222 72.3361L125.255 72.3653Z" fill="#C2D600"/>
<path d="M157.177 168.341C155.19 172.025 146.69 177.976 142.934 180.198C142.093 180.696 137.102 182.883 136.96 183.183C136.854 183.399 137.613 185.532 137.999 185.87C140.55 188.115 154.533 180.003 157.911 182.302C159.502 183.383 157.285 184.725 155.916 184.891C155.221 184.978 154.614 184.568 153.695 184.726C148.447 185.629 138.08 191.928 133.306 187.318C132.836 186.864 132.178 185.327 131.909 185.254C131.596 185.17 130.277 185.742 129.509 185.773C122.16 186.042 124.348 182.144 125.919 177.155C121.376 178.103 118.64 174.654 120.985 170.499C124.965 163.448 138.847 155.94 146.629 154.563C147.936 154.329 152.009 154.921 149.803 156.474C148.837 157.155 143.745 157.976 141.899 158.637C136.986 160.394 129.36 165.025 126.307 169.303C125.21 170.844 123.468 173.727 126.023 174.715C128.088 175.51 127.878 173.83 128.828 172.574C133.663 166.139 145.391 156.213 153.937 157.579C159.076 158.403 154.455 161.997 154.639 162.573C154.881 163.33 159.856 163.365 157.18 168.324L157.177 168.341ZM151.21 160.013C144.248 161.946 137.955 166.447 133.939 172.438C137.58 171.277 139.482 167.549 142.557 165.56C145.632 163.57 150.028 163.631 151.203 160.015L151.21 160.013ZM137.627 179.92C140.497 178.059 153.042 170.343 152.919 166.943C152.886 165.992 152.053 165.026 151.044 165.348C148.34 167.703 142.853 169.977 140.529 172.378C139.794 173.137 136.721 179.343 137.627 179.92ZM133.635 175.569C131.509 174.658 128.233 181.398 129.615 183.34L132.293 182.422L133.635 175.569Z" fill="#C2D600"/>
<path d="M48.5904 34.3382C49.4868 33.687 51.7644 33.0324 52.5003 34.2196C58.7923 45.5341 64.7498 57.1697 71.8138 68.0157C72.6209 69.2517 76.4113 73.4922 76.0828 74.4548C75.6567 75.7344 72.6902 75.8224 71.4779 75.0095C70.498 74.3528 66.9096 69.1265 66.0228 67.765C60.9978 60.026 51.9222 45.2621 48.7322 37.0254C48.4568 36.3109 47.7545 34.9304 48.5809 34.3333L48.5904 34.3382Z" fill="#C2D600"/>
<path d="M119.753 26.3798C120.997 25.7212 123.366 26.1496 123.152 27.8221C119.705 37.142 118.256 47.0961 116.319 56.8164C115.93 58.41 112.795 58.7422 111.878 57.8351C111.323 57.2893 112.985 49.3963 113.259 48.0142C114.256 42.9701 115.565 36.8101 117.131 31.9578C117.613 30.4539 118.411 27.1017 119.756 26.387L119.753 26.3798Z" fill="#C2D600"/>
<path d="M18.7744 90.2636C20.4251 90.6826 23.6543 92.6396 25.5379 93.3656C35.1035 97.0596 42.6707 99.8418 52.8681 101.531C53.2526 101.591 53.972 101.307 53.8806 102.066C53.8046 102.75 52.6673 103.518 52.0322 103.768C49.085 104.938 38.8995 101.791 35.5393 100.694C30.5394 99.0628 20.1348 95.4774 15.8812 92.9732C12.9218 91.2399 16.0264 89.567 18.7649 90.2587L18.7744 90.2636Z" fill="#C2D600"/>
<path d="M157.975 118.363C156.346 117.763 158.312 114.912 159.976 115.422L193.539 121.037C196.104 121.958 193.342 123.832 191.574 123.57C180.987 121.853 170.29 120.442 159.765 118.373C159.18 118.257 158.356 118.512 157.977 118.371L157.975 118.363Z" fill="#C2D600"/>
<path d="M67.7741 180.982C66.8421 180.326 71.335 174.811 71.9377 174.11C75.2211 170.307 79.4276 166.734 82.8158 162.961C84.1198 161.894 85.6527 162.716 86.8591 163.435C81.8107 169.151 76.1091 174.313 71.6428 180.535C70.4511 181.431 69.0941 180.887 67.7669 180.984L67.7741 180.982Z" fill="#C2D600"/>
<path d="M56.2426 142.371C58.3528 141.516 63.2516 140.637 59.8717 143.589C57.1504 145.966 39.351 151.625 35.0606 152.468C31.1351 153.235 32.5344 150.374 35.0114 149.473C42.1031 146.903 48.8388 145.383 56.2449 142.378L56.2426 142.371Z" fill="#C2D600"/>
<path d="M149.998 77.7732C157.547 76.6612 168.214 70.8059 175.864 72.6007C177.598 73.0088 177.956 73.8081 176.185 74.5795C173.948 75.5625 167.628 75.3695 164.526 76.1042C161.085 76.923 152.681 80.6589 149.913 80.2228C147.806 79.8936 148.761 78.8507 150.003 77.7637L149.998 77.7732Z" fill="#C2D600"/>
</svg>
