<svg width="137" height="95" viewBox="0 0 137 95" fill="none" xmlns="http://www.w3.org/2000/svg">
<path d="M81.0523 27.8256C87.8765 37.9967 93.5068 49.0028 100.351 59.2391C105.218 59.2391 110.261 58.2214 115.219 58.1822C120.177 58.1431 130.694 58.3714 134.641 60.146C135.444 60.5048 137.675 61.7835 136.422 62.6447C135.333 63.395 133.415 62.2989 132.273 62.1489C116.752 60.159 102.275 62.1489 87.3089 66.1938C74.1759 69.7364 56.8349 74.7469 44.7196 80.5273C42.5862 81.545 37.667 84.931 35.7555 85.0289C34.7899 85.0811 32.0237 83.5088 32.1803 82.5954C34.6594 79.8031 38.4173 78.7919 41.588 77.0369L39.5134 75.6864C28.4354 79.1637 18.0947 84.6375 8.19769 90.6135C7.28432 91.1616 3.77435 93.9408 3.42858 94.0452C1.98023 94.4758 -0.772944 93.0014 0.205671 91.3312L9.39159 85.3616C9.26764 84.9115 9.03277 84.4548 9.02625 83.972C8.70656 68.4773 9.07191 52.9434 11.6163 37.6574C17.0378 34.6172 20.6913 42.9876 23.3271 46.5889C27.8809 52.8129 32.3434 59.3957 37.0016 65.6262C37.3017 66.0242 39.2198 68.6208 39.6373 68.1445C39.9635 61.3268 40.1919 54.1177 41.0726 47.3522C41.2553 45.93 41.8164 41.1217 42.6449 40.391C44.7979 38.486 48.1969 41.5588 49.58 43.1833C53.9708 48.3439 56.3064 55.3182 60.4557 60.6679C61.0233 60.3417 60.8798 59.8981 60.9972 59.4349C61.8845 55.9575 62.1324 51.1884 62.8762 47.4436C64.3245 40.1496 66.484 31.1529 68.6435 24.0481C69.1197 22.4758 69.7982 19.7553 71.4749 19.2595C75.8656 17.9742 79.0951 24.8702 81.0653 27.806L81.0523 27.8256ZM74.8479 24.7854C73.9737 24.5505 74.1172 25.1051 73.8954 25.7705C70.1897 36.9006 67.2212 51.8865 65.8577 63.5907C65.7794 64.2431 65.4336 65.698 66.1382 65.9068C66.621 66.0503 69.3285 65.5479 70.4115 65.6654C71.4945 65.7828 72.6232 66.5983 73.1059 66.5657C76.1788 66.383 84.0142 63.1405 87.5829 62.1946C90.4079 61.4443 93.3894 61.0985 96.2078 60.3221L74.8479 24.7788V24.7854ZM31.9454 64.4454C27.235 57.6994 22.0027 49.603 17.0052 43.2812C16.7312 42.9354 15.9418 41.8981 15.4264 42.1917C14.3891 55.6835 12.9407 69.2341 13.6518 82.7259C16.2484 81.5972 18.6428 79.914 21.1676 78.6744C21.7548 78.3874 22.4463 77.9698 22.8312 77.7871C27.3981 75.6603 32.3173 74.3359 36.969 72.4243C37.3539 71.9285 32.5717 65.3392 31.9454 64.4454ZM48.6797 48.7941C48.1839 47.959 47.1792 44.5338 46.579 46.9804C45.2741 52.2518 44.9545 62.6121 44.6478 68.3924C44.6283 68.7578 44.6152 70.6106 45.1371 70.6237L59.9077 67.0746C55.8301 61.1833 52.3397 54.9332 48.6797 48.7875V48.7941ZM52.4376 72.4243C51.5112 72.8223 42.7689 74.0619 44.2564 75.98C46.3963 75.0144 48.7123 74.486 50.8327 73.4943C51.3024 73.2725 52.3397 72.9724 52.4311 72.4309L52.4376 72.4243Z" fill="#C2D600"/>
<path d="M34.4314 17.8815C40.1987 24.3534 34.5358 31.7909 27.0527 30.0555C21.7029 28.8159 17.6449 24.0533 21.3767 18.8144C21.729 18.3186 23.1513 17.34 23.21 17.2291C23.3992 16.8768 22.6032 15.6568 22.9294 15.1936C23.0534 15.0239 26.4459 14.2606 27.0135 14.2345C30.4713 14.0779 32.2915 15.4806 34.4249 17.8815H34.4314ZM30.3278 18.0511C29.2122 17.4248 25.7609 20.8304 25.2586 21.9591C24.0646 24.647 24.9715 28.2091 28.3183 26.8195C31.0911 25.6713 32.4611 22.494 31.3586 19.7082C31.2868 19.5256 30.4191 18.0903 30.3343 18.0446L30.3278 18.0511Z" fill="#C2D600"/>
<path d="M17.8087 26.2998C18.2327 26.8087 18.5524 27.7155 17.913 28.1396C14.2856 29.4314 8.73362 35.016 4.80612 33.7829C3.50782 33.3719 2.28129 32.4324 3.78836 31.4603C5.29543 30.4883 13.1048 25.9801 14.3444 25.6604C15.4665 25.3668 17.0062 25.3538 17.8021 26.3063L17.8087 26.2998Z" fill="#C2D600"/>
<path d="M33.6748 0.716243C34.1054 1.14683 34.5033 1.80577 34.4577 2.45166C34.3141 4.39584 32.0307 7.76227 32.109 10.0914C31.1891 12.0486 27.8683 10.3067 27.79 8.60388C27.7378 7.5535 29.819 0.96416 30.6084 0.42266C31.5871 -0.242798 32.8593 -0.105794 33.6748 0.716243Z" fill="#C2D600"/>
<path d="M35.6815 43.573C34.6637 44.4537 32.0476 42.7379 31.8127 41.2634C31.6431 40.2065 32.1911 34.2696 32.7 33.6694C33.9722 32.1493 36.5427 33.826 36.7058 35.6984C36.7906 36.6118 36.4187 40.4936 36.2034 41.5179C36.1382 41.8506 35.7598 43.5077 35.675 43.5795L35.6815 43.573Z" fill="#C2D600"/>
<path d="M47.6975 9.93876C47.8802 10.1475 48.0955 10.5129 48.1086 10.7739C48.1542 12.02 41.9759 14.7405 40.906 15.9344C39.8491 16.626 37.5134 15.0276 37.2851 14.1142C37.1089 13.4292 43.072 9.52775 43.8875 9.27983C45.0488 8.92753 46.8755 8.9732 47.7041 9.93224L47.6975 9.93876Z" fill="#C2D600"/>
<path d="M52.6846 24.1712C53.9046 25.0454 53.5849 26.4481 51.9082 26.5721C50.4207 26.683 42.3896 25.8088 40.9608 25.3912C40.3475 25.2151 38.5208 24.1777 38.5795 23.5188L40.5106 22.625C42.8136 23.4731 51.0275 22.9773 52.6846 24.1647V24.1712Z" fill="#C2D600"/>
<path d="M12.0158 6.67803C12.4659 7.01728 13.0205 7.91108 13.5033 8.28948C14.4623 9.03975 18.1354 11.4341 18.579 12.0213C19.4989 13.2413 18.5464 13.711 17.3264 13.6588C15.591 13.5871 10.1629 9.20938 8.92988 7.79365C6.32024 4.79909 9.80412 5.00786 12.0158 6.67151V6.67803Z" fill="#C2D600"/>
</svg>
