<svg width="107" height="61" viewBox="0 0 107 61" fill="none" xmlns="http://www.w3.org/2000/svg">
<path d="M97.1847 49.9965L101.978 43.244C102.95 42.0437 106.298 42.2985 106.967 43.4049C107.433 44.1761 102.855 50.9018 102.147 52.1826C100.601 54.9721 99.4125 60.8059 95.5307 60.6182C94.9703 60.5914 93.4581 60.0616 93.1341 59.6861C92.6953 59.1765 92.8573 58.459 92.5468 58.0566C91.2101 56.3065 88.5502 54.6301 86.8692 53.1079C86.1401 52.4441 81.8532 48.6353 81.7587 48.2799C81.644 47.8574 81.7587 47.5289 82.049 47.2271C86.1806 44.9539 89.3131 51.3041 92.756 52.9269L90.0016 40.1326C86.2751 30.3693 81.7858 18.0913 70.8425 14.5642C66.3936 21.994 52.3921 32.5151 43.6024 32.6156C37.297 32.6894 35.1907 29.5378 39.2142 24.4482C45.0943 17.0117 57.8739 11.4058 67.3185 11.2181C69.445 1.6358 57.1515 2.92326 51.0689 4.0431C38.2151 6.41688 10.3269 20.5992 5.04091 32.9174C4.39282 34.4328 5.18942 35.774 2.40803 35.6197C-2.7227 35.3314 1.69919 29.4372 3.28566 27.5194C14.8838 13.5248 48.1457 -4.96251 66.3396 1.83026C68.7294 2.7221 71.7201 4.55272 72.3479 7.20142C72.6449 8.46208 72.1319 11.8015 72.2871 11.9959C72.4559 12.2038 75.3521 13.0353 76.0677 13.3773C89.0565 19.5263 94.7948 36.8468 97.1847 49.9898V49.9965ZM65.5092 14.1819C58.2789 15.4761 48.0917 19.9219 43.5888 25.8631C42.9407 26.7214 41.2598 29.806 42.772 29.8194C48.2605 29.8663 59.8789 21.2295 63.4907 17.1056C63.7877 16.7703 65.7792 14.4167 65.5092 14.1753V14.1819Z" fill="#C2D600"/>
</svg>
