<svg width="220" height="55" viewBox="0 0 220 55" fill="none" xmlns="http://www.w3.org/2000/svg">
<path d="M81.0459 38.4558C82.5823 38.6218 84.0967 39.0645 85.5782 39.8059C87.0597 40.5474 88.4205 41.488 89.6496 42.6279C90.8897 43.7788 91.9761 45.1289 92.9089 46.6782C93.8417 48.2385 94.5112 49.9538 94.9172 51.8351H104.048C103.718 49.8764 103.071 47.9619 102.105 46.1027C101.129 44.2436 99.9543 42.5393 98.5716 41.0122C97.1888 39.474 95.7073 38.1681 94.1271 37.0836C92.5468 35.9991 90.9446 35.2355 89.3204 34.7818C91.4274 33.9629 93.4357 32.7124 95.3452 31.0414C97.2547 29.3593 98.9337 27.3894 100.393 25.1208C101.853 22.8522 102.862 20.4287 103.433 17.8502H94.3685C93.8417 20.307 92.9089 22.5092 91.5701 24.4458C90.2312 26.3935 88.651 27.976 86.8183 29.2043C84.9966 30.4327 83.0651 31.2295 81.0349 31.5947V6.42969H72.4531V51.8351H81.0349V38.4558H81.0459Z" fill="#C2D600"/>
<path d="M139.475 51.8345V17.8385H130.838V25.264C130.026 22.8073 128.621 20.8818 126.613 19.4985C124.605 18.1041 122.267 17.418 119.59 17.418C116.671 17.418 114.059 18.1594 111.776 19.6534C109.482 21.1473 107.694 23.2057 106.388 25.8174C105.093 28.4401 104.445 31.4391 104.445 34.8365C104.445 38.2339 105.093 41.1886 106.388 43.8224C107.683 46.4562 109.482 48.5256 111.776 50.0196C114.07 51.5135 116.671 52.255 119.59 52.255C122.267 52.255 124.605 51.5578 126.591 50.1745C128.577 48.7801 129.993 46.8657 130.849 44.4089V47.2972C130.849 48.6473 131.266 49.7429 132.1 50.584C132.934 51.425 134.054 51.8455 135.48 51.8455H139.497L139.475 51.8345ZM129.587 40.2037C128.753 41.6976 127.678 42.8264 126.361 43.5789C125.044 44.3314 123.595 44.7188 122.015 44.7188C120.435 44.7188 119.085 44.3425 117.724 43.5789C116.363 42.8264 115.266 41.6976 114.443 40.2037C113.62 38.7097 113.192 36.917 113.192 34.8365C113.192 32.756 113.609 30.919 114.443 29.4693C115.277 28.0196 116.363 26.9019 117.702 26.1272C119.041 25.3526 120.479 24.9653 122.026 24.9653C123.573 24.9653 125.011 25.3526 126.35 26.1272C127.689 26.9019 128.775 28.0196 129.609 29.4693C130.443 30.919 130.86 32.7117 130.86 34.8365C130.86 36.9612 130.443 38.7097 129.609 40.2037H129.587Z" fill="#C2D600"/>
<path d="M169.598 24.7674V17.8398H145.016V24.9555H159.743L145.016 44.8972V51.8358H169.718V44.7091H154.75L169.598 24.7674Z" fill="#C2D600"/>
<path d="M200.46 40.2382C199.769 41.1788 198.902 42.0531 197.848 42.8499C196.795 43.6466 195.632 44.2774 194.348 44.7533C193.064 45.2291 191.758 45.4615 190.419 45.4615C188.872 45.4615 187.423 45.1959 186.073 44.6647C184.712 44.1336 183.593 43.4032 182.693 42.4847C181.804 41.5662 181.234 40.537 180.992 39.3861C181.113 39.3418 181.365 39.3418 181.749 39.3861C182.133 39.4303 182.583 39.4525 183.088 39.4525C183.593 39.4525 184.01 39.4746 184.339 39.5189C186.655 39.5963 189.003 39.4746 191.396 39.1537C193.788 38.8328 195.994 38.2573 198.002 37.4384C200.01 36.6195 201.634 35.5018 202.875 34.0963C204.115 32.6909 204.729 30.8981 204.729 28.7291C204.729 27.0913 204.345 25.5752 203.577 24.1919C202.809 22.8086 201.744 21.6024 200.383 20.6064C199.023 19.5994 197.464 18.8247 195.697 18.2714C193.931 17.7181 192.021 17.4414 189.947 17.4414C187.555 17.4414 185.283 17.8619 183.132 18.703C180.981 19.544 179.083 20.7392 177.447 22.2885C175.801 23.8488 174.506 25.708 173.552 27.877C172.597 30.046 172.125 32.4585 172.125 35.1144C172.125 37.7704 172.586 40.0279 173.497 42.1084C174.408 44.2 175.681 46.0038 177.305 47.542C178.929 49.0802 180.849 50.2533 183.088 51.0722C185.316 51.8911 187.73 52.3006 190.331 52.3006C192.438 52.3006 194.468 52.035 196.411 51.5038C198.353 50.9726 200.186 50.1315 201.887 48.9917C203.588 47.8519 205.091 46.4354 206.386 44.7533L200.482 40.2714L200.46 40.2382ZM181.848 28.8509C182.66 27.4786 183.78 26.3609 185.228 25.5088C186.666 24.6456 188.323 24.214 190.188 24.214C191.363 24.214 192.416 24.4132 193.349 24.8006C194.282 25.1879 195.006 25.6969 195.544 26.3388C196.071 26.9696 196.334 27.7 196.334 28.5189C196.334 29.5038 195.983 30.3116 195.269 30.9424C194.556 31.5732 193.623 32.0601 192.471 32.381C191.319 32.713 190.046 32.9454 188.663 33.0893C187.28 33.2332 185.941 33.2996 184.647 33.2996C183.834 33.2996 183.055 33.2774 182.309 33.2442C181.563 33.2 180.959 33.1668 180.509 33.1225C180.586 31.6507 181.036 30.2342 181.848 28.8619V28.8509Z" fill="#C2D600"/>
<path d="M214.045 13.7865C215.746 13.7865 217.173 13.2663 218.303 12.2261C219.433 11.1858 220.004 9.86895 220.004 8.26432C220.004 6.65969 219.433 5.39812 218.303 4.33575C217.162 3.27337 215.746 2.74219 214.045 2.74219C212.344 2.74219 210.873 3.27337 209.754 4.33575C208.635 5.39812 208.086 6.70396 208.086 8.26432C208.086 9.82468 208.646 11.1748 209.754 12.2261C210.873 13.2663 212.3 13.7865 214.045 13.7865Z" fill="#C2D600"/>
<path d="M218.301 17.8398H209.664V51.8358H218.301V17.8398Z" fill="#C2D600"/>
<path d="M36.7964 5.36515L34.0748 4.66797C33.0103 8.8732 31.9348 12.9235 30.8594 16.7967C31.9568 16.332 33.0762 15.8229 34.1955 15.2474C35.0625 12.0603 35.9294 8.7736 36.7854 5.36515H36.7964Z" fill="#C2D600"/>
<path d="M31.7057 30.0885C41.2422 28.3954 49.1326 25.6509 53.3906 23.9909C55.2452 23.2606 56.1122 21.1026 55.2891 19.2767L55.1355 18.9336C55.0038 18.9889 44.721 23.67 31.1021 26.1157C30.4985 26.2263 22.6849 27.4437 17.8014 27.6318C10.9865 27.9084 6.78341 26.8793 5.02754 24.8984C4.08377 23.836 3.77649 22.3088 4.08377 20.2173L0.155026 19.6308C-0.327836 22.9175 0.319638 25.5845 2.06453 27.5654C4.50079 30.3099 8.8246 31.5825 15.9578 31.5825C16.6053 31.5825 17.2747 31.5825 17.9661 31.5493C15.5956 38.8088 13.2691 45.0503 10.9975 50.2404C10.2512 51.9447 10.9975 53.9366 12.6655 54.7334L13.2143 54.999C15.8041 49.5101 18.4599 42.66 21.1815 34.504C22.1033 36.0201 23.102 37.4366 24.1555 38.7646C22.5423 43.5231 20.9181 47.8722 19.3049 51.8229C18.833 52.9628 19.3707 54.2797 20.5011 54.7666L21.0278 54.999C22.7727 50.8934 24.5176 46.3119 26.2625 41.2656C31.552 47.0754 37.6756 50.9487 42.164 53.2616C44.1394 54.2797 46.5647 53.3944 47.4316 51.336C43.2285 49.5322 34.4163 45.0503 27.744 36.8944C27.0307 36.0201 24.4188 32.2243 23.8372 31.1841C24.8139 31.0845 27.9854 30.6972 28.611 30.5976C28.8634 30.9738 29.1377 31.3501 29.4011 31.7153C34.5151 38.676 41.3081 43.7113 46.7732 46.1569C47.8486 46.6439 49.1107 46.1016 49.4948 44.9728L49.7252 44.2978C44.6113 42.5161 37.105 37.4145 31.7057 30.0996V30.0885Z" fill="#C2D600"/>
<path d="M12.3827 24.5785C15.3128 25.1097 18.4514 24.8219 21.3925 24.4899C24.5311 24.1358 27.6258 23.5272 30.7095 22.8632C36.438 21.6237 42.1446 20.008 47.5987 17.8169C48.4108 17.4849 49.2229 17.1419 50.024 16.7877L48.8717 14.2093C43.4176 16.6992 37.6013 18.4366 31.774 19.7535C28.7122 20.4507 25.1017 21.4245 18.9123 21.9336C8.7722 22.7746 8.3881 17.7726 9.89156 16.2344C11.5926 14.497 14.7531 14.674 16.2456 15.338C18.4185 16.3119 19.5708 17.2415 21.3376 19.333C22.1387 19.2002 24.992 18.6801 26.1443 18.4366C27.6916 13.0141 29.2609 7.20423 30.8412 0.995977L26.9893 0C25.4968 5.88732 24.0043 11.4205 22.5338 16.5775C21.1949 15.1831 19.6037 13.7666 17.5844 12.9256C12.3827 10.7344 8.32226 12.5825 6.57737 15.8471C5.78723 17.33 5.74333 18.9014 6.46763 20.3954C7.59796 22.7525 10.2647 24.1911 12.3937 24.5785H12.3827Z" fill="#C2D600"/>
</svg>
