<svg width="422" height="223" viewBox="0 0 422 223" fill="none" xmlns="http://www.w3.org/2000/svg">
<path d="M126.431 167.272C131.337 167.273 135.753 168.407 139.679 170.676C143.645 172.934 146.942 176.134 149.573 180.273L150.902 168.652H166.818L163.782 194.872L166.818 221H150.902L149.558 209.35C149.545 209.369 149.535 209.389 149.522 209.408C146.946 213.517 143.665 216.707 139.679 218.977C135.753 221.246 131.337 222.38 126.431 222.38C121.34 222.38 116.832 221.246 112.906 218.977C108.981 216.646 105.914 213.426 103.706 209.316C101.559 205.146 100.486 200.331 100.486 194.872C100.486 189.352 101.559 184.537 103.706 180.428C105.914 176.257 108.981 173.038 112.906 170.769C116.832 168.438 121.34 167.272 126.431 167.272ZM343.028 167.272C349.1 167.272 354.314 168.622 358.669 171.32C363.023 173.958 366.366 177.699 368.696 182.544C371.088 187.389 372.284 193.094 372.284 199.656H328.658C329.036 200.807 329.532 201.881 330.148 202.876C331.743 205.452 334.074 207.415 337.141 208.765C340.207 210.114 343.918 210.788 348.272 210.788C352.198 210.788 356.154 210.236 360.141 209.132C364.127 207.967 367.715 206.341 370.904 204.256V214.561C367.47 217.014 363.452 218.946 358.853 220.356C354.314 221.706 349.499 222.38 344.408 222.38C338.214 222.38 332.663 221.246 327.757 218.977C322.912 216.646 319.078 213.395 316.257 209.225C313.497 205.054 312.116 200.208 312.116 194.688C312.116 189.23 313.435 184.445 316.072 180.336C318.771 176.227 322.451 173.038 327.112 170.769C331.774 168.438 337.079 167.272 343.028 167.272ZM43.7109 152C49.1694 152 53.8923 152.951 57.8789 154.853C61.8653 156.754 64.9011 159.422 66.9863 162.856C69.1329 166.291 70.2061 170.278 70.2061 174.816C70.206 179.355 69.133 183.342 66.9863 186.776C64.901 190.15 61.8653 192.818 57.8789 194.78C53.8923 196.682 49.1694 197.632 43.7109 197.632H21.7227V221H6.08203V152H43.7109ZM92.3809 221H77.0176V150.16H92.3809V221ZM212.247 167.272C217.215 167.272 221.447 168.285 224.943 170.309C228.439 172.271 231.107 175.093 232.947 178.772C234.787 182.452 235.707 186.837 235.707 191.928V221H220.344V194.229C220.344 189.506 219.209 185.949 216.939 183.557C214.67 181.103 211.358 179.876 207.003 179.876C204.059 179.876 201.453 180.551 199.184 181.9C196.976 183.188 195.258 184.997 194.031 187.328C192.866 189.659 192.283 192.45 192.283 195.7V221H176.919V186.316L173.607 168.652H188.972L190.908 180.327C191.142 179.891 191.385 179.464 191.64 179.048C193.97 175.245 196.914 172.333 200.472 170.309C204.029 168.285 207.954 167.273 212.247 167.272ZM281.595 167.272C286.563 167.272 290.795 168.285 294.291 170.309C297.787 172.271 300.455 175.093 302.295 178.772C304.135 182.452 305.055 186.837 305.055 191.928V221H289.691V194.229C289.691 189.506 288.556 185.949 286.287 183.557C284.018 181.103 280.705 179.876 276.351 179.876C273.407 179.876 270.8 180.551 268.531 181.9C266.323 183.188 264.606 184.997 263.379 187.328C262.214 189.659 261.631 192.45 261.631 195.7V221H246.267V186.316L242.955 168.652H258.319L260.256 180.327C260.49 179.891 260.733 179.464 260.987 179.048C263.318 175.245 266.262 172.333 269.819 170.309C273.377 168.285 277.302 167.273 281.595 167.272ZM414.957 167.272C416.122 167.272 417.288 167.364 418.453 167.548C419.68 167.671 420.815 167.855 421.857 168.101V181.349C420.263 180.981 418.668 180.705 417.073 180.521C415.479 180.337 413.976 180.244 412.565 180.244C409.499 180.244 406.738 180.888 404.285 182.176C401.832 183.464 399.9 185.458 398.489 188.156C397.079 190.855 396.373 194.259 396.373 198.368V221H381.009V185.856L377.697 168.652H393.245L395.581 182.738C396.518 179.957 397.733 177.501 399.226 175.368C401.004 172.854 403.181 170.891 405.757 169.48C408.333 168.008 411.4 167.272 414.957 167.272ZM130.754 179.232C127.871 179.232 125.326 179.907 123.118 181.256C120.91 182.544 119.162 184.384 117.874 186.776C116.647 189.107 116.034 191.806 116.034 194.872C116.034 197.939 116.647 200.637 117.874 202.968C119.162 205.298 120.91 207.139 123.118 208.488C125.326 209.776 127.871 210.42 130.754 210.42C133.637 210.42 136.336 209.776 138.851 208.488C141.427 207.139 143.696 205.298 145.658 202.968C147.621 200.637 149.154 197.939 150.258 194.872C149.154 191.806 147.621 189.107 145.658 186.776C143.696 184.384 141.427 182.544 138.851 181.256C136.336 179.907 133.637 179.232 130.754 179.232ZM343.12 178.588C339.992 178.588 337.263 179.233 334.933 180.521C332.663 181.747 330.885 183.495 329.597 185.765C328.973 186.888 328.508 188.115 328.201 189.444H357.424C357.028 187.913 356.462 186.533 355.725 185.304C354.498 183.157 352.811 181.501 350.664 180.336C348.517 179.171 346.003 178.588 343.12 178.588ZM21.7227 184.752H42.8828C46.5013 184.752 49.3227 183.863 51.3467 182.084C53.4318 180.305 54.4746 177.883 54.4746 174.816C54.4746 171.688 53.432 169.265 51.3467 167.548C49.3227 165.769 46.5013 164.88 42.8828 164.88H21.7227V184.752ZM139.278 92.2725C144.185 92.2725 148.601 93.4065 152.526 95.6758C156.493 97.9336 159.79 101.134 162.421 105.273L163.75 93.6523H179.666L176.63 119.872L179.666 146H163.75L162.405 134.35C162.393 134.369 162.382 134.389 162.37 134.408C159.794 138.517 156.513 141.707 152.526 143.977C148.601 146.246 144.185 147.38 139.278 147.38C134.188 147.38 129.679 146.246 125.754 143.977C121.829 141.646 118.762 138.426 116.554 134.316C114.407 130.146 113.334 125.331 113.334 119.872C113.334 114.352 114.407 109.537 116.554 105.428C118.762 101.257 121.829 98.0378 125.754 95.7686C129.679 93.4379 134.188 92.2725 139.278 92.2725ZM281.407 92.2725C287.479 92.2725 292.693 93.6216 297.048 96.3203C301.402 98.9576 304.745 102.699 307.075 107.544C309.467 112.389 310.663 118.094 310.663 124.656H267.037C267.415 125.807 267.911 126.881 268.527 127.876C270.122 130.452 272.453 132.415 275.52 133.765C278.586 135.114 282.297 135.788 286.651 135.788C290.577 135.788 294.533 135.236 298.52 134.132C302.506 132.967 306.094 131.341 309.283 129.256V139.561C305.849 142.014 301.831 143.946 297.231 145.356C292.693 146.706 287.878 147.38 282.787 147.38C276.593 147.38 271.042 146.246 266.136 143.977C261.291 141.646 257.457 138.395 254.636 134.225C251.876 130.054 250.495 125.208 250.495 119.688C250.495 114.23 251.814 109.445 254.451 105.336C257.15 101.227 260.83 98.0379 265.491 95.7686C270.152 93.4379 275.458 92.2725 281.407 92.2725ZM71.0342 90.7998H43.6182V146H28.0703V90.7998H0.5625V77H71.0342V90.7998ZM104.336 92.2725C105.501 92.2725 106.667 92.3639 107.832 92.5479C109.059 92.6705 110.194 92.8553 111.236 93.1006V106.349C109.642 105.981 108.047 105.705 106.452 105.521C104.858 105.337 103.355 105.244 101.944 105.244C98.8777 105.244 96.1174 105.888 93.6641 107.176C91.2107 108.464 89.2788 110.458 87.8682 113.156C86.4575 115.855 85.752 119.259 85.752 123.368V146H70.3877V110.856L67.0762 93.6523H82.624L84.96 107.738C85.8966 104.957 87.1118 102.501 88.6045 100.368C90.383 97.8537 92.56 95.8911 95.1357 94.4805C97.7117 93.0085 100.779 92.2725 104.336 92.2725ZM217.533 132.56L234.571 93.6523H250.947L225.923 146H208.535L183.604 93.6523H200.531L217.533 132.56ZM334.014 146H318.65V75.1602H334.014V146ZM143.602 104.232C140.719 104.232 138.174 104.907 135.966 106.256C133.758 107.544 132.01 109.384 130.722 111.776C129.495 114.107 128.882 116.806 128.882 119.872C128.882 122.939 129.495 125.637 130.722 127.968C132.01 130.298 133.758 132.139 135.966 133.488C138.174 134.776 140.719 135.42 143.602 135.42C146.484 135.42 149.184 134.776 151.698 133.488C154.274 132.139 156.543 130.298 158.506 127.968C160.468 125.637 162.002 122.939 163.105 119.872C162.001 116.806 160.468 114.107 158.506 111.776C156.543 109.384 154.274 107.544 151.698 106.256C149.184 104.907 146.484 104.232 143.602 104.232ZM281.499 103.588C278.371 103.588 275.642 104.233 273.312 105.521C271.042 106.747 269.264 108.495 267.976 110.765C267.352 111.888 266.887 113.115 266.58 114.444H295.803C295.407 112.913 294.841 111.533 294.104 110.304C292.877 108.157 291.19 106.501 289.043 105.336C286.896 104.171 284.381 103.588 281.499 103.588ZM174.247 17.2725C180.319 17.2725 185.533 18.6216 189.888 21.3203C194.242 23.9576 197.584 27.6989 199.915 32.5439C202.307 37.3893 203.503 43.0936 203.503 49.6562H159.877C160.255 50.8072 160.751 51.8807 161.367 52.876C162.962 55.452 165.293 57.4153 168.359 58.7646C171.426 60.1139 175.137 60.7881 179.491 60.7881C183.417 60.7881 187.373 60.2358 191.359 59.1318C195.346 57.9665 198.934 56.3412 202.123 54.2559V64.5605C198.688 67.0138 194.671 68.9458 190.071 70.3564C185.533 71.7058 180.718 72.3799 175.627 72.3799C169.433 72.3798 163.882 71.2457 158.976 68.9766C154.13 66.646 150.297 63.3951 147.476 59.2246C144.716 55.054 143.335 50.2083 143.335 44.6885C143.335 39.2298 144.654 34.4453 147.291 30.3359C149.99 26.2267 153.67 23.0379 158.331 20.7686C162.992 18.4379 168.298 17.2725 174.247 17.2725ZM71.0342 15.7998H43.6182V71H28.0703V15.7998H0.5625V2H71.0342V15.7998ZM92.8301 28.0488C95.0519 24.7321 97.78 22.1512 101.019 20.3086C104.576 18.2847 108.501 17.2725 112.794 17.2725C117.762 17.2725 121.994 18.2846 125.49 20.3086C128.986 22.2713 131.654 25.0925 133.494 28.7725C135.334 32.4523 136.254 36.8373 136.254 41.9277V71H120.891V44.2285C120.891 39.506 119.756 35.9486 117.486 33.5566C115.217 31.1033 111.936 29.876 107.643 29.876C104.637 29.876 102 30.5511 99.7305 31.9004C97.5225 33.1884 95.8048 34.9975 94.5781 37.3281C93.4128 39.6588 92.8301 42.4496 92.8301 45.7002V71H77.4668V0.160156H92.8301V28.0488ZM174.339 28.5879C171.211 28.5879 168.482 29.2326 166.151 30.5205C163.882 31.7472 162.103 33.4953 160.815 35.7646C160.191 36.888 159.726 38.1146 159.42 39.4443H188.643C188.247 37.9135 187.681 36.5329 186.943 35.3037C185.717 33.1572 184.029 31.5012 181.883 30.3359C179.736 29.1708 177.221 28.5879 174.339 28.5879Z" fill="#C2D600"/>
</svg>
