<svg width="453" height="200" viewBox="0 0 453 200" fill="none" xmlns="http://www.w3.org/2000/svg">
<path d="M211.679 69.517C202.561 82.3446 191.756 93.9093 179.846 104.161C181.928 108.71 184.425 113.891 184.484 118.982C184.839 148.881 148.488 165.971 125.132 147.746C123.74 146.66 122.349 143.493 120.208 143.986C101.183 150.144 82.2971 156.686 63.3517 163.05C59.3356 164.402 55.1222 165.626 50.9878 166.563L56.3359 188.587C51.5108 188.242 39.7685 198.395 36.5024 192.583C35.1506 190.166 36.3643 185.015 32.6739 185.923L34.0454 195.07C29.1314 197.241 23.3294 201.711 18.4352 197.192L12.12 179.568C1.71975 179.568 -5.2565 168.902 5.10429 162.419C41.4756 150.706 77.9357 139.25 114.495 128.12C115.323 127.518 114.573 123.6 114.702 122.308C115.708 112.44 122.063 102.612 130.134 96.9681C132.424 95.3696 140.614 92.0936 141.334 90.949C142.173 89.6268 143.386 83.6175 144.235 81.4763C154.329 56.1664 179.619 22.3409 202.67 7.55947C211.314 2.01398 229.894 -6.4128 234.749 7.91469C240.245 24.1367 221.072 56.2749 211.659 69.517H211.679ZM147.59 90.1892C150.619 90.061 153.708 90.1892 156.737 90.1892C159.766 90.1892 169.338 94.4618 172.031 96.4156C173.758 97.6687 175.682 100.807 177.508 100.185C187.138 91.9456 195.841 82.5222 203.508 72.3884C213.238 59.5312 234.176 25.9622 230.062 9.95725C227.516 0.0602297 220.905 2.42841 213.415 5.91161C189.526 17.0125 161.197 55.0908 150.846 78.9206C149.672 81.6243 147.175 87.2586 146.781 89.9228C146.544 91.5707 147.422 90.1991 147.59 90.1991V90.1892ZM169.18 99.5534C162.697 94.0869 154.112 92.0739 145.824 94.0671C145.192 94.521 144.176 104.586 144.63 105.247C160.96 98.8331 176.294 113.496 169.93 130.261C162.539 149.739 131.2 143.118 133.914 120.088C134.624 114.068 138.916 111.167 139.676 108.059C140.051 106.54 139.114 103.964 139.202 102.287C139.301 100.402 140.091 98.6259 140.298 96.8695C140.387 96.09 140.387 95.9222 139.508 96.0899C138.058 96.3761 133.045 100.047 131.703 101.201C126.414 105.77 121.491 113.723 120.543 120.709C120.316 122.387 120.741 128.978 120.07 129.501C83.5404 142.003 46.3501 152.689 9.68275 164.846C3.37747 167.866 6.93962 177.092 11.8141 176.125C47.1099 163.869 82.8003 152.808 118.244 141.006C119.961 140.434 122.29 138.204 124.174 139.378C124.737 139.724 125.141 141.332 125.773 142.082C147.027 166.997 185.343 141.668 177.054 112.351C176.077 108.878 171.943 101.892 169.16 99.5435L169.18 99.5534ZM153.056 106.51C151.783 106.549 146.455 108.503 145.942 109.539C145.429 110.575 147.876 113.19 148.961 113.565C151.162 114.305 160.309 112.855 160.773 110.891C161.207 109.046 154.684 106.47 153.046 106.52L153.056 106.51ZM160.447 134.504C165.795 128.81 166.871 121.795 163.486 114.611C157.724 116.081 153.954 118.134 147.886 116.249C146.534 115.825 142.528 113.17 141.926 113.555C138.018 120.176 138.531 129.126 143.82 134.839C149.109 140.553 155.602 139.674 160.457 134.514L160.447 134.504ZM45.5903 168.704L16.5307 178.67L23.5563 195.573C23.9905 195.879 28.3519 193.886 28.4111 193.639C28.7762 192.07 26.0133 184.68 27.3454 183.811C34.6572 183.061 40.775 180.141 41.2979 190.215C41.6926 190.492 49.932 186.87 50.2082 186.475C51.5699 184.522 45.3535 171.911 45.6002 168.704H45.5903Z" fill="#C2D600"/>
<path d="M452.319 159.43C453.878 162.755 449.862 162.064 447.641 161.157C440.547 158.236 435.445 148.684 427.216 147.155C410.836 144.106 402.843 174.034 383.641 158.966C377.987 154.526 371.672 142.448 363.117 145.004C352.816 148.082 346.767 161.028 336.347 162.351C325.927 163.673 319.622 159.252 312.784 152.315C306.537 145.971 304.978 137.554 294.065 143.237C285.964 147.451 279.441 156.874 277.024 165.528C276.185 168.537 278.336 170.442 272.554 169.356C269.623 168.804 271.607 163.998 272.317 161.857C277.271 146.829 298.486 128.269 312.517 143.968C316.73 148.684 322.138 156.401 328.196 158.956C336.327 162.4 341.952 153.894 347.26 149.612C359.121 140.06 368.011 138.018 380.089 148.507C384.539 152.365 389.809 161.946 396.143 159.193C402.478 156.44 407.491 148.734 415.345 145.576C431.893 138.935 440.162 151.062 452.309 159.43H452.319Z" fill="#C2D600"/>
<path d="M231.713 180.063C234.18 182.589 238.917 191.717 242.38 191.756C245.34 191.795 256.115 183.615 259.865 181.731C281.721 170.778 297.46 184.701 313.702 197.894C312.222 199.364 309.656 199.087 307.949 198.278C296.177 192.703 288.421 178.78 272.594 181.001C260.062 182.757 247.916 201.456 235.414 192.249C230.105 188.332 224.865 174.725 216.863 177.488C214.001 178.474 204.588 185.954 202.575 188.48C200.562 191.006 200.591 194.193 197.345 193.759C190.921 192.91 199.486 184.839 201.766 182.826C211.347 174.37 221.333 169.416 231.723 180.063H231.713Z" fill="#C2D600"/>
<path d="M48.4983 89.3863C41.9957 95.3067 36.5291 100.566 30.3422 106.743C28.1911 108.884 24.4613 110.966 22.7049 113.364C20.8498 115.89 21.8464 118.219 17.3271 117.725C12.2553 117.173 16.5081 113.996 17.2285 112.703C19.3894 108.825 21.9747 103.141 23.9383 98.9971C27.5596 91.3499 30.4113 83.3671 33.9932 75.7001C38.2658 73.3912 37.9401 77.4269 39.7064 78.6801C42.0154 80.3082 51.8828 82.7553 52.8991 84.3341C54.0536 86.1201 49.6627 88.3403 48.4983 89.3961V89.3863ZM47.2156 84.8768L37.0225 81.1174L28.3885 101.543L47.2156 84.8768Z" fill="#C2D600"/>
<path d="M9.95046 123.725C12.5259 123.281 15.3677 123.242 17.0945 125.472C17.6273 126.163 20.7947 131.935 20.8539 132.507C21.298 136.918 13.5718 138.457 10.355 138.112C0.349432 137.046 0.8823 125.294 9.95046 123.725ZM12.1509 127.455C8.6282 125.413 5.7173 136.928 12.9403 134.767C13.5619 134.579 14.7065 133.484 14.8644 132.882C15.0618 132.113 12.4469 127.623 12.1607 127.455H12.1509Z" fill="#C2D600"/>
</svg>
