<svg width="33" height="32" viewBox="0 0 33 32" fill="none" xmlns="http://www.w3.org/2000/svg">
<path d="M21.844 3.12048L20.2287 2.71484C19.5969 5.16152 18.9586 7.51806 18.3203 9.77158C18.9716 9.50116 19.636 9.20498 20.3004 8.87018C20.8149 7.01585 21.3295 5.10358 21.8375 3.12048H21.844Z" fill="#C2D600"/>
<path d="M18.8179 17.5058C24.478 16.5207 29.1611 14.9239 31.6882 13.9581C32.789 13.5331 33.3035 12.2776 32.815 11.2152L32.7239 11.0156C32.6457 11.0478 26.5427 13.7714 18.4596 15.1943C18.1014 15.2587 13.4639 15.9669 10.5655 16.0764C6.52068 16.2374 4.02607 15.6386 2.98393 14.486C2.42379 13.8679 2.24141 12.9794 2.42379 11.7625L0.0920105 11.4213C-0.194577 13.3335 0.189711 14.8852 1.22533 16.0378C2.67129 17.6345 5.23755 18.375 9.47122 18.375C9.85551 18.375 10.2528 18.375 10.6632 18.3557C9.25628 22.5794 7.87545 26.2108 6.52719 29.2305C6.08429 30.2221 6.52719 31.381 7.51722 31.8446L7.84289 31.9991C9.38004 28.8056 10.9563 24.8201 12.5716 20.0748C13.1187 20.9569 13.7114 21.781 14.3367 22.5537C13.3792 25.3223 12.4153 27.8526 11.4578 30.1512C11.1777 30.8144 11.4969 31.5806 12.1677 31.8639L12.4804 31.9991C13.516 29.6104 14.5516 26.9448 15.5873 24.0088C18.7267 27.3891 22.3611 29.6426 25.0251 30.9883C26.1975 31.5806 27.6369 31.0655 28.1515 29.8679C25.6569 28.8184 20.4267 26.2108 16.4666 21.4655C16.0432 20.9569 14.493 18.7484 14.1478 18.1432C14.7275 18.0852 16.6098 17.8599 16.9811 17.8019C17.1309 18.0209 17.2937 18.2398 17.4501 18.4522C20.4853 22.5021 24.517 25.4317 27.7607 26.8547C28.399 27.138 29.148 26.8225 29.376 26.1657L29.5128 25.773C26.4776 24.7363 22.0224 21.7681 18.8179 17.5122V17.5058Z" fill="#C2D600"/>
<path d="M7.34731 14.3002C9.08637 14.6093 10.9492 14.4419 12.6948 14.2487C14.5576 14.0427 16.3943 13.6885 18.2246 13.3022C21.6246 12.5811 25.0115 11.641 28.2486 10.3662C28.7306 10.173 29.2126 9.97344 29.6881 9.7674L29.0042 8.2672C25.767 9.71589 22.315 10.7268 18.8564 11.493C17.0392 11.8986 14.8963 12.4652 11.2227 12.7614C5.20442 13.2507 4.97645 10.3404 5.86878 9.44547C6.87835 8.43461 8.75419 8.53763 9.64 8.92394C10.9296 9.49054 11.6135 10.0314 12.6622 11.2483C13.1377 11.171 14.8311 10.8684 15.515 10.7268C16.4334 7.57183 17.3648 4.19155 18.3027 0.579477L16.0166 0C15.1308 3.42535 14.2449 6.64467 13.3721 9.64507C12.5775 8.8338 11.6331 8.00966 10.4346 7.52032C7.34731 6.24547 4.93737 7.32072 3.90175 9.22012C3.43279 10.0829 3.40674 10.9972 3.83662 11.8664C4.50749 13.2378 6.09023 14.0748 7.35382 14.3002H7.34731Z" fill="#C2D600"/>
</svg>
