<svg width="3161" height="139" viewBox="0 0 3161 139" fill="none" xmlns="http://www.w3.org/2000/svg">
<path d="M49.96 113V62.32H73.76V113H49.96ZM0.54 7.99999H27L67.46 59.1H55.98L96.44 7.99999H122.9L69.42 75.62L54.16 75.76L0.54 7.99999ZM153.905 115.1C144.012 115.1 135.332 113.373 127.865 109.92C120.399 106.373 114.565 101.473 110.365 95.22C106.165 88.8733 104.065 81.5467 104.065 73.24C104.065 64.84 106.165 57.5133 110.365 51.26C114.565 44.9133 120.399 40.0133 127.865 36.56C135.332 33.0133 144.012 31.24 153.905 31.24C163.799 31.24 172.479 33.0133 179.945 36.56C187.412 40.0133 193.199 44.9133 197.305 51.26C201.505 57.5133 203.605 64.84 203.605 73.24C203.605 81.5467 201.505 88.8733 197.305 95.22C193.199 101.473 187.412 106.373 179.945 109.92C172.479 113.373 163.799 115.1 153.905 115.1ZM153.905 97.32C159.319 97.32 163.939 96.34 167.765 94.38C171.685 92.42 174.672 89.6667 176.725 86.12C178.872 82.48 179.945 78.1867 179.945 73.24C179.945 68.2 178.872 63.9067 176.725 60.36C174.672 56.72 171.685 53.92 167.765 51.96C163.939 50 159.319 49.02 153.905 49.02C148.585 49.02 143.965 50 140.045 51.96C136.125 53.92 133.092 56.72 130.945 60.36C128.892 63.9067 127.865 68.2 127.865 73.24C127.865 78.1867 128.892 82.48 130.945 86.12C133.092 89.6667 136.125 92.42 140.045 94.38C143.965 96.34 148.585 97.32 153.905 97.32ZM249.97 115.1C242.597 115.1 236.297 113.607 231.07 110.62C225.937 107.54 221.97 103.2 219.17 97.6C216.463 92 215.11 85.3733 215.11 77.72V33.34H238.49V74.22C238.49 81.3133 240.17 86.7267 243.53 90.46C246.89 94.1 251.65 95.92 257.81 95.92C262.383 95.92 266.257 94.9867 269.43 93.12C272.697 91.16 275.217 88.36 276.99 84.72C278.763 81.08 279.65 76.8333 279.65 71.98L287.21 76.04C286.277 84.2533 284.083 91.3 280.63 97.18C277.177 102.967 272.79 107.4 267.47 110.48C262.243 113.56 256.41 115.1 249.97 115.1ZM284.55 113L279.65 82.76V33.34H303.03V86.26L307.93 113H284.55ZM424.897 61.2L427.137 56.44C435.257 56.6267 441.977 57.9333 447.297 60.36C452.617 62.6933 456.537 65.9133 459.057 70.02C461.577 74.0333 462.837 78.6533 462.837 83.88C462.837 89.48 461.484 94.4733 458.777 98.86C456.164 103.247 452.291 106.7 447.157 109.22C442.024 111.74 435.584 113 427.837 113H354.197L362.317 59.1L354.197 7.99999H425.177C434.884 7.99999 442.397 10.2867 447.717 14.86C453.131 19.34 455.837 25.5467 455.837 33.48C455.837 37.7733 454.811 41.9267 452.757 45.94C450.797 49.9533 447.531 53.36 442.957 56.16C438.477 58.8667 432.457 60.5467 424.897 61.2ZM377.717 106.98L368.617 95.5H422.937C427.977 95.5 431.851 94.3333 434.557 92C437.357 89.5733 438.757 86.2133 438.757 81.92C438.757 77.5333 437.171 74.08 433.997 71.56C430.824 68.9467 426.157 67.64 419.997 67.64H375.757V50.56H417.197C421.397 50.56 424.851 49.3933 427.557 47.06C430.357 44.6333 431.757 41.2733 431.757 36.98C431.757 33.7133 430.591 31.0067 428.257 28.86C425.924 26.62 422.564 25.5 418.177 25.5H368.617L377.717 14.02L385.137 59.1L377.717 106.98ZM471.54 33.34H495.2L499.96 62.04V113H476.58V59.52L471.54 33.34ZM538.74 32.5V52.66C536.313 52.1 533.887 51.68 531.46 51.4C529.033 51.12 526.747 50.98 524.6 50.98C519.933 50.98 515.733 51.96 512 53.92C508.267 55.88 505.327 58.9133 503.18 63.02C501.033 67.1267 499.96 72.3067 499.96 78.56L495.06 72.68C495.62 66.9867 496.647 61.6667 498.14 56.72C499.633 51.68 501.687 47.2933 504.3 43.56C507.007 39.7333 510.32 36.7467 514.24 34.6C518.16 32.36 522.827 31.24 528.24 31.24C530.013 31.24 531.787 31.38 533.56 31.66C535.427 31.8467 537.153 32.1267 538.74 32.5ZM548.558 32.5L560.178 34.74L571.938 32.5V113H548.558V32.5ZM560.178 24.24C555.978 24.24 552.525 23.1667 549.818 21.02C547.205 18.78 545.898 15.84 545.898 12.2C545.898 8.46666 547.205 5.52666 549.818 3.37999C552.525 1.13999 555.978 0.0199943 560.178 0.0199943C564.472 0.0199943 567.925 1.13999 570.538 3.37999C573.152 5.52666 574.458 8.46666 574.458 12.2C574.458 15.84 573.152 18.78 570.538 21.02C567.925 23.1667 564.472 24.24 560.178 24.24ZM584.794 33.34H608.174L613.214 63.72V113H589.834V60.22L584.794 33.34ZM643.594 31.24C651.154 31.24 657.594 32.78 662.914 35.86C668.234 38.8467 672.294 43.14 675.094 48.74C677.894 54.34 679.294 61.0133 679.294 68.76V113H655.914V72.26C655.914 65.0733 654.187 59.66 650.734 56.02C647.281 52.2867 642.241 50.42 635.614 50.42C631.134 50.42 627.167 51.4467 623.714 53.5C620.354 55.46 617.741 58.2133 615.874 61.76C614.101 65.3067 613.214 69.5533 613.214 74.5L605.514 70.44C606.447 62.04 608.687 54.9467 612.234 49.16C615.781 43.3733 620.261 38.94 625.674 35.86C631.087 32.78 637.061 31.24 643.594 31.24ZM765.601 93.26V79.4L766.441 76.46V59.1L765.601 56.16V33.34H788.981V91.72C788.981 101.8 786.741 110.293 782.261 117.2C777.875 124.107 771.761 129.333 763.921 132.88C756.081 136.427 746.981 138.2 736.621 138.2C729.341 138.2 722.621 137.267 716.461 135.4C710.395 133.533 704.421 130.687 698.541 126.86V108.52C704.235 112.907 710.161 116.033 716.321 117.9C722.575 119.767 728.875 120.7 735.221 120.7C745.021 120.7 752.535 118.413 757.761 113.84C762.988 109.267 765.601 102.407 765.601 93.26ZM729.341 105.72C721.968 105.72 715.341 104.18 709.461 101.1C703.675 98.02 699.101 93.68 695.741 88.08C692.381 82.48 690.701 75.9467 690.701 68.48C690.701 61.0133 692.381 54.5267 695.741 49.02C699.101 43.42 703.675 39.08 709.461 36C715.341 32.8267 721.968 31.24 729.341 31.24C734.941 31.24 740.028 32.1267 744.601 33.9C749.268 35.58 753.421 37.82 757.061 40.62C760.795 43.42 763.921 46.5 766.441 49.86C768.961 53.1267 770.875 56.44 772.181 59.8C773.581 63.0667 774.281 66.0533 774.281 68.76C774.281 72.2133 773.208 76.0867 771.061 80.38C769.008 84.6733 766.021 88.7333 762.101 92.56C758.181 96.3867 753.468 99.56 747.961 102.08C742.455 104.507 736.248 105.72 729.341 105.72ZM737.041 89.2C743.108 89.2 748.568 87.5667 753.421 84.3C758.368 80.94 762.708 75.6667 766.441 68.48C762.708 61.2 758.368 55.9267 753.421 52.66C748.475 49.3 743.015 47.62 737.041 47.62C732.281 47.62 728.175 48.5067 724.721 50.28C721.361 51.96 718.748 54.3867 716.881 57.56C715.108 60.64 714.221 64.28 714.221 68.48C714.221 72.5867 715.108 76.2267 716.881 79.4C718.655 82.48 721.268 84.9067 724.721 86.68C728.175 88.36 732.281 89.2 737.041 89.2ZM870.779 18.64H894.439V113H870.779V18.64ZM828.919 7.99999H936.159V29H828.919V7.99999ZM946.468 5.19999H969.848V113H946.468V5.19999ZM1000.23 31.24C1007.79 31.24 1014.23 32.78 1019.55 35.86C1024.87 38.8467 1028.93 43.14 1031.73 48.74C1034.53 54.34 1035.93 61.0133 1035.93 68.76V113H1012.55V72.26C1012.55 65.0733 1010.82 59.66 1007.37 56.02C1003.92 52.2867 998.922 50.42 992.388 50.42C987.815 50.42 983.802 51.4467 980.348 53.5C976.988 55.46 974.375 58.2133 972.508 61.76C970.735 65.3067 969.848 69.5533 969.848 74.5L962.148 70.44C963.175 62.04 965.415 54.9467 968.868 49.16C972.415 43.3733 976.895 38.94 982.308 35.86C987.722 32.78 993.695 31.24 1000.23 31.24ZM1096.37 115.1C1086.94 115.1 1078.49 113.373 1071.03 109.92C1063.65 106.373 1057.82 101.427 1053.53 95.08C1049.33 88.7333 1047.23 81.36 1047.23 72.96C1047.23 64.6533 1049.23 57.3733 1053.25 51.12C1057.35 44.8667 1062.95 40.0133 1070.05 36.56C1077.14 33.0133 1085.21 31.24 1094.27 31.24C1103.51 31.24 1111.44 33.2933 1118.07 37.4C1124.69 41.4133 1129.78 47.1067 1133.33 54.48C1136.97 61.8533 1138.79 70.5333 1138.79 80.52H1065.99V64.98H1126.19L1117.09 70.58C1116.71 65.9133 1115.55 61.9467 1113.59 58.68C1111.72 55.4133 1109.15 52.8933 1105.89 51.12C1102.62 49.3467 1098.79 48.46 1094.41 48.46C1089.65 48.46 1085.49 49.44 1081.95 51.4C1078.49 53.2667 1075.79 55.9267 1073.83 59.38C1071.96 62.74 1071.03 66.7067 1071.03 71.28C1071.03 76.7867 1072.24 81.5 1074.67 85.42C1077.09 89.34 1080.64 92.3267 1085.31 94.38C1089.97 96.4333 1095.62 97.46 1102.25 97.46C1108.22 97.46 1114.24 96.62 1120.31 94.94C1126.37 93.1667 1131.83 90.6933 1136.69 87.52V103.2C1131.46 106.933 1125.35 109.873 1118.35 112.02C1111.44 114.073 1104.11 115.1 1096.37 115.1ZM1241.43 102.5H1230.93L1273.77 7.99999H1298.97L1249.13 113H1222.39L1172.69 7.99999H1198.17L1241.43 102.5ZM1307.37 32.5L1318.99 34.74L1330.75 32.5V113H1307.37V32.5ZM1318.99 24.24C1314.79 24.24 1311.34 23.1667 1308.63 21.02C1306.02 18.78 1304.71 15.84 1304.71 12.2C1304.71 8.46666 1306.02 5.52666 1308.63 3.37999C1311.34 1.13999 1314.79 0.0199943 1318.99 0.0199943C1323.28 0.0199943 1326.74 1.13999 1329.35 3.37999C1331.96 5.52666 1333.27 8.46666 1333.27 12.2C1333.27 15.84 1331.96 18.78 1329.35 21.02C1326.74 23.1667 1323.28 24.24 1318.99 24.24ZM1347.39 5.19999H1370.77V58.68L1367.55 64.98V82.34L1370.77 88.78V113H1347.39V5.19999ZM1362.51 73.24C1364 64.7467 1366.75 57.3733 1370.77 51.12C1374.78 44.7733 1379.77 39.8733 1385.75 36.42C1391.72 32.9667 1398.44 31.24 1405.91 31.24C1413.65 31.24 1420.51 33.0133 1426.49 36.56C1432.46 40.0133 1437.13 44.9133 1440.49 51.26C1443.85 57.5133 1445.53 64.84 1445.53 73.24C1445.53 81.5467 1443.85 88.8733 1440.49 95.22C1437.13 101.473 1432.46 106.373 1426.49 109.92C1420.51 113.373 1413.65 115.1 1405.91 115.1C1398.44 115.1 1391.72 113.373 1385.75 109.92C1379.77 106.467 1374.78 101.613 1370.77 95.36C1366.85 89.0133 1364.09 81.64 1362.51 73.24ZM1421.73 73.24C1421.73 68.5733 1420.75 64.4667 1418.79 60.92C1416.92 57.28 1414.31 54.48 1410.95 52.52C1407.59 50.4667 1403.76 49.44 1399.47 49.44C1395.08 49.44 1390.93 50.4667 1387.01 52.52C1383.09 54.48 1379.63 57.28 1376.65 60.92C1373.75 64.4667 1371.47 68.5733 1369.79 73.24C1371.47 77.9067 1373.75 82.0133 1376.65 85.56C1379.63 89.1067 1383.09 91.9067 1387.01 93.96C1390.93 95.92 1395.08 96.9 1399.47 96.9C1403.76 96.9 1407.59 95.92 1410.95 93.96C1414.31 91.9067 1416.92 89.1067 1418.79 85.56C1420.75 82.0133 1421.73 77.9067 1421.73 73.24ZM1503.16 115.1C1493.74 115.1 1485.29 113.373 1477.82 109.92C1470.45 106.373 1464.62 101.427 1460.32 95.08C1456.12 88.7333 1454.02 81.36 1454.02 72.96C1454.02 64.6533 1456.03 57.3733 1460.04 51.12C1464.15 44.8667 1469.75 40.0133 1476.84 36.56C1483.94 33.0133 1492.01 31.24 1501.06 31.24C1510.3 31.24 1518.24 33.2933 1524.86 37.4C1531.49 41.4133 1536.58 47.1067 1540.12 54.48C1543.76 61.8533 1545.58 70.5333 1545.58 80.52H1472.78V64.98H1532.98L1523.88 70.58C1523.51 65.9133 1522.34 61.9467 1520.38 58.68C1518.52 55.4133 1515.95 52.8933 1512.68 51.12C1509.42 49.3467 1505.59 48.46 1501.2 48.46C1496.44 48.46 1492.29 49.44 1488.74 51.4C1485.29 53.2667 1482.58 55.9267 1480.62 59.38C1478.76 62.74 1477.82 66.7067 1477.82 71.28C1477.82 76.7867 1479.04 81.5 1481.46 85.42C1483.89 89.34 1487.44 92.3267 1492.1 94.38C1496.77 96.4333 1502.42 97.46 1509.04 97.46C1515.02 97.46 1521.04 96.62 1527.1 94.94C1533.17 93.1667 1538.63 90.6933 1543.48 87.52V103.2C1538.26 106.933 1532.14 109.873 1525.14 112.02C1518.24 114.073 1510.91 115.1 1503.16 115.1ZM1554.76 133.02L1567.78 105.44L1569.04 113.98C1566.52 113.98 1564.18 113.373 1562.04 112.16C1559.98 110.853 1558.35 109.173 1557.14 107.12C1555.92 105.067 1555.32 102.78 1555.32 100.26C1555.32 97.74 1555.92 95.4533 1557.14 93.4C1558.35 91.3467 1559.98 89.76 1562.04 88.64C1564.18 87.4267 1566.52 86.82 1569.04 86.82C1571.74 86.82 1574.12 87.4267 1576.18 88.64C1578.23 89.8533 1579.86 91.5333 1581.08 93.68C1582.29 95.7333 1582.9 98.1133 1582.9 100.82C1582.9 103.247 1582.29 105.86 1581.08 108.66C1579.96 111.46 1578 115.053 1575.2 119.44L1566.8 133.02H1554.76ZM1755.1 103.34H1746.98L1776.24 7.99999H1801.16L1767.42 113H1737.04L1704 20.04H1714.36L1681.32 113H1650.94L1617.2 7.99999H1642.4L1671.38 103.34L1663.54 103.2L1696.58 7.99999H1721.92L1755.1 103.34ZM1846.7 115.1C1837.27 115.1 1828.83 113.373 1821.36 109.92C1813.99 106.373 1808.15 101.427 1803.86 95.08C1799.66 88.7333 1797.56 81.36 1797.56 72.96C1797.56 64.6533 1799.57 57.3733 1803.58 51.12C1807.69 44.8667 1813.29 40.0133 1820.38 36.56C1827.47 33.0133 1835.55 31.24 1844.6 31.24C1853.84 31.24 1861.77 33.2933 1868.4 37.4C1875.03 41.4133 1880.11 47.1067 1883.66 54.48C1887.3 61.8533 1889.12 70.5333 1889.12 80.52H1816.32V64.98H1876.52L1867.42 70.58C1867.05 65.9133 1865.88 61.9467 1863.92 58.68C1862.05 55.4133 1859.49 52.8933 1856.22 51.12C1852.95 49.3467 1849.13 48.46 1844.74 48.46C1839.98 48.46 1835.83 49.44 1832.28 51.4C1828.83 53.2667 1826.12 55.9267 1824.16 59.38C1822.29 62.74 1821.36 66.7067 1821.36 71.28C1821.36 76.7867 1822.57 81.5 1825 85.42C1827.43 89.34 1830.97 92.3267 1835.64 94.38C1840.31 96.4333 1845.95 97.46 1852.58 97.46C1858.55 97.46 1864.57 96.62 1870.64 94.94C1876.71 93.1667 1882.17 90.6933 1887.02 87.52V103.2C1881.79 106.933 1875.68 109.873 1868.68 112.02C1861.77 114.073 1854.45 115.1 1846.7 115.1ZM2044.84 67.5C2044.74 73.8467 2043.48 79.9133 2041.06 85.7C2038.72 91.3933 2035.36 96.48 2030.98 100.96C2026.59 105.347 2021.18 108.8 2014.74 111.32C2008.3 113.84 2000.83 115.1 1992.34 115.1C1984.12 115.1 1976.42 113.887 1969.24 111.46C1962.14 108.94 1955.89 105.347 1950.48 100.68C1945.16 96.0133 1941 90.32 1938.02 83.6C1935.03 76.7867 1933.54 69.0867 1933.54 60.5C1933.54 51.9133 1935.03 44.26 1938.02 37.54C1941.1 30.7267 1945.34 24.9867 1950.76 20.32C1956.17 15.6533 1962.52 12.1067 1969.8 9.68C1977.08 7.15999 1985.01 5.89999 1993.6 5.89999C2004.8 5.89999 2014.5 7.67333 2022.72 11.22C2030.93 14.6733 2037.56 19.48 2042.6 25.64C2047.73 31.8 2050.9 38.8467 2052.12 46.78H2028.18C2027.24 42.4867 2025.19 38.8 2022.02 35.72C2018.94 32.64 2014.97 30.26 2010.12 28.58C2005.36 26.9 1999.85 26.06 1993.6 26.06C1986.22 26.06 1979.83 27.4133 1974.42 30.12C1969.1 32.7333 1964.94 36.6067 1961.96 41.74C1959.06 46.8733 1957.62 53.1267 1957.62 60.5C1957.62 67.8733 1959.16 74.1733 1962.24 79.4C1965.32 84.6267 1969.7 88.64 1975.4 91.44C1981.09 94.1467 1987.81 95.5 1995.56 95.5C2003.12 95.5 2009.74 94.3333 2015.44 92C2021.13 89.5733 2025.61 86.2133 2028.88 81.92C2032.24 77.5333 2034.15 72.3533 2034.62 66.38L2044.84 67.5ZM1998.78 77.16V59.94H2053.24V113H2036.16L2032.94 70.44L2037.84 77.16H1998.78ZM2102.79 115.1C2095.42 115.1 2089.12 113.607 2083.89 110.62C2078.76 107.54 2074.79 103.2 2071.99 97.6C2069.29 92 2067.93 85.3733 2067.93 77.72V33.34H2091.31V74.22C2091.31 81.3133 2092.99 86.7267 2096.35 90.46C2099.71 94.1 2104.47 95.92 2110.63 95.92C2115.21 95.92 2119.08 94.9867 2122.25 93.12C2125.52 91.16 2128.04 88.36 2129.81 84.72C2131.59 81.08 2132.47 76.8333 2132.47 71.98L2140.03 76.04C2139.1 84.2533 2136.91 91.3 2133.45 97.18C2130 102.967 2125.61 107.4 2120.29 110.48C2115.07 113.56 2109.23 115.1 2102.79 115.1ZM2137.37 113L2132.47 82.76V33.34H2155.85V86.26L2160.75 113H2137.37ZM2173.6 32.5L2185.22 34.74L2196.98 32.5V113H2173.6V32.5ZM2185.22 24.24C2181.02 24.24 2177.57 23.1667 2174.86 21.02C2172.25 18.78 2170.94 15.84 2170.94 12.2C2170.94 8.46666 2172.25 5.52666 2174.86 3.37999C2177.57 1.13999 2181.02 0.0199943 2185.22 0.0199943C2189.51 0.0199943 2192.97 1.13999 2195.58 3.37999C2198.19 5.52666 2199.5 8.46666 2199.5 12.2C2199.5 15.84 2198.19 18.78 2195.58 21.02C2192.97 23.1667 2189.51 24.24 2185.22 24.24ZM2286.98 113L2283.62 82.9L2288.1 73.38L2283.76 61.76L2290.06 5.19999H2314.28L2306.58 71.56L2311.2 113H2286.98ZM2292.72 73.24C2291.22 81.64 2288.47 89.0133 2284.46 95.36C2280.54 101.613 2275.54 106.467 2269.48 109.92C2263.5 113.373 2256.78 115.1 2249.32 115.1C2241.57 115.1 2234.71 113.373 2228.74 109.92C2222.76 106.373 2218.1 101.473 2214.74 95.22C2211.47 88.8733 2209.84 81.5467 2209.84 73.24C2209.84 64.84 2211.47 57.5133 2214.74 51.26C2218.1 44.9133 2222.76 40.0133 2228.74 36.56C2234.71 33.0133 2241.57 31.24 2249.32 31.24C2256.78 31.24 2263.5 32.9667 2269.48 36.42C2275.54 39.8733 2280.58 44.7733 2284.6 51.12C2288.61 57.3733 2291.32 64.7467 2292.72 73.24ZM2233.5 73.24C2233.5 77.9067 2234.43 82.0133 2236.3 85.56C2238.26 89.1067 2240.92 91.9067 2244.28 93.96C2247.64 95.92 2251.51 96.9 2255.9 96.9C2260.28 96.9 2264.39 95.92 2268.22 93.96C2272.14 91.9067 2275.59 89.1067 2278.58 85.56C2281.56 82.0133 2283.9 77.9067 2285.58 73.24C2283.9 68.5733 2281.56 64.4667 2278.58 60.92C2275.59 57.28 2272.14 54.48 2268.22 52.52C2264.39 50.4667 2260.28 49.44 2255.9 49.44C2251.51 49.44 2247.64 50.4667 2244.28 52.52C2240.92 54.48 2238.26 57.28 2236.3 60.92C2234.43 64.4667 2233.5 68.5733 2233.5 73.24ZM2370.35 115.1C2360.92 115.1 2352.48 113.373 2345.01 109.92C2337.64 106.373 2331.8 101.427 2327.51 95.08C2323.31 88.7333 2321.21 81.36 2321.21 72.96C2321.21 64.6533 2323.22 57.3733 2327.23 51.12C2331.34 44.8667 2336.94 40.0133 2344.03 36.56C2351.12 33.0133 2359.2 31.24 2368.25 31.24C2377.49 31.24 2385.42 33.2933 2392.05 37.4C2398.68 41.4133 2403.76 47.1067 2407.31 54.48C2410.95 61.8533 2412.77 70.5333 2412.77 80.52H2339.97V64.98H2400.17L2391.07 70.58C2390.7 65.9133 2389.53 61.9467 2387.57 58.68C2385.7 55.4133 2383.14 52.8933 2379.87 51.12C2376.6 49.3467 2372.78 48.46 2368.39 48.46C2363.63 48.46 2359.48 49.44 2355.93 51.4C2352.48 53.2667 2349.77 55.9267 2347.81 59.38C2345.94 62.74 2345.01 66.7067 2345.01 71.28C2345.01 76.7867 2346.22 81.5 2348.65 85.42C2351.08 89.34 2354.62 92.3267 2359.29 94.38C2363.96 96.4333 2369.6 97.46 2376.23 97.46C2382.2 97.46 2388.22 96.62 2394.29 94.94C2400.36 93.1667 2405.82 90.6933 2410.67 87.52V103.2C2405.44 106.933 2399.33 109.873 2392.33 112.02C2385.42 114.073 2378.1 115.1 2370.35 115.1ZM2491.04 18.64H2514.7V113H2491.04V18.64ZM2449.18 7.99999H2556.42V29H2449.18V7.99999ZM2566.73 5.19999H2590.11V113H2566.73V5.19999ZM2620.49 31.24C2628.05 31.24 2634.49 32.78 2639.81 35.86C2645.13 38.8467 2649.19 43.14 2651.99 48.74C2654.79 54.34 2656.19 61.0133 2656.19 68.76V113H2632.81V72.26C2632.81 65.0733 2631.08 59.66 2627.63 56.02C2624.17 52.2867 2619.18 50.42 2612.65 50.42C2608.07 50.42 2604.06 51.4467 2600.61 53.5C2597.25 55.46 2594.63 58.2133 2592.77 61.76C2590.99 65.3067 2590.11 69.5533 2590.11 74.5L2582.41 70.44C2583.43 62.04 2585.67 54.9467 2589.13 49.16C2592.67 43.3733 2597.15 38.94 2602.57 35.86C2607.98 32.78 2613.95 31.24 2620.49 31.24ZM2716.62 115.1C2707.2 115.1 2698.75 113.373 2691.28 109.92C2683.91 106.373 2678.08 101.427 2673.78 95.08C2669.58 88.7333 2667.48 81.36 2667.48 72.96C2667.48 64.6533 2669.49 57.3733 2673.5 51.12C2677.61 44.8667 2683.21 40.0133 2690.3 36.56C2697.4 33.0133 2705.47 31.24 2714.52 31.24C2723.76 31.24 2731.7 33.2933 2738.32 37.4C2744.95 41.4133 2750.04 47.1067 2753.58 54.48C2757.22 61.8533 2759.04 70.5333 2759.04 80.52H2686.24V64.98H2746.44L2737.34 70.58C2736.97 65.9133 2735.8 61.9467 2733.84 58.68C2731.98 55.4133 2729.41 52.8933 2726.14 51.12C2722.88 49.3467 2719.05 48.46 2714.66 48.46C2709.9 48.46 2705.75 49.44 2702.2 51.4C2698.75 53.2667 2696.04 55.9267 2694.08 59.38C2692.22 62.74 2691.28 66.7067 2691.28 71.28C2691.28 76.7867 2692.5 81.5 2694.92 85.42C2697.35 89.34 2700.9 92.3267 2705.56 94.38C2710.23 96.4333 2715.88 97.46 2722.5 97.46C2728.48 97.46 2734.5 96.62 2740.56 94.94C2746.63 93.1667 2752.09 90.6933 2756.94 87.52V103.2C2751.72 106.933 2745.6 109.873 2738.6 112.02C2731.7 114.073 2724.37 115.1 2716.62 115.1ZM2825.02 54.62H2865.48C2870.8 54.62 2875 53.4067 2878.08 50.98C2881.25 48.46 2882.84 45.0067 2882.84 40.62C2882.84 36.2333 2881.25 32.8267 2878.08 30.4C2875 27.9733 2870.8 26.76 2865.48 26.76H2821.52L2832.3 14.58V113H2808.5V7.99999H2868.28C2875.93 7.99999 2882.65 9.39999 2888.44 12.2C2894.23 14.9067 2898.75 18.6867 2902.02 23.54C2905.29 28.3933 2906.92 34.0867 2906.92 40.62C2906.92 47.06 2905.29 52.7067 2902.02 57.56C2898.75 62.4133 2894.23 66.24 2888.44 69.04C2882.65 71.7467 2875.93 73.1 2868.28 73.1H2825.02V54.62ZM2843.22 63.86H2870.38L2910 113H2882.14L2843.22 63.86ZM2920.93 32.5L2932.55 34.74L2944.31 32.5V113H2920.93V32.5ZM2932.55 24.24C2928.35 24.24 2924.9 23.1667 2922.19 21.02C2919.58 18.78 2918.27 15.84 2918.27 12.2C2918.27 8.46666 2919.58 5.52666 2922.19 3.37999C2924.9 1.13999 2928.35 0.0199943 2932.55 0.0199943C2936.84 0.0199943 2940.3 1.13999 2942.91 3.37999C2945.52 5.52666 2946.83 8.46666 2946.83 12.2C2946.83 15.84 2945.52 18.78 2942.91 21.02C2940.3 23.1667 2936.84 24.24 2932.55 24.24ZM3034.31 113L3030.95 82.9L3035.43 73.38L3031.09 61.76L3037.39 5.19999H3061.61L3053.91 71.56L3058.53 113H3034.31ZM3040.05 73.24C3038.55 81.64 3035.8 89.0133 3031.79 95.36C3027.87 101.613 3022.87 106.467 3016.81 109.92C3010.83 113.373 3004.11 115.1 2996.65 115.1C2988.9 115.1 2982.04 113.373 2976.07 109.92C2970.09 106.373 2965.43 101.473 2962.07 95.22C2958.8 88.8733 2957.17 81.5467 2957.17 73.24C2957.17 64.84 2958.8 57.5133 2962.07 51.26C2965.43 44.9133 2970.09 40.0133 2976.07 36.56C2982.04 33.0133 2988.9 31.24 2996.65 31.24C3004.11 31.24 3010.83 32.9667 3016.81 36.42C3022.87 39.8733 3027.91 44.7733 3031.93 51.12C3035.94 57.3733 3038.65 64.7467 3040.05 73.24ZM2980.83 73.24C2980.83 77.9067 2981.76 82.0133 2983.63 85.56C2985.59 89.1067 2988.25 91.9067 2991.61 93.96C2994.97 95.92 2998.84 96.9 3003.23 96.9C3007.61 96.9 3011.72 95.92 3015.55 93.96C3019.47 91.9067 3022.92 89.1067 3025.91 85.56C3028.89 82.0133 3031.23 77.9067 3032.91 73.24C3031.23 68.5733 3028.89 64.4667 3025.91 60.92C3022.92 57.28 3019.47 54.48 3015.55 52.52C3011.72 50.4667 3007.61 49.44 3003.23 49.44C2998.84 49.44 2994.97 50.4667 2991.61 52.52C2988.25 54.48 2985.59 57.28 2983.63 60.92C2981.76 64.4667 2980.83 68.5733 2980.83 73.24ZM3117.68 115.1C3108.25 115.1 3099.8 113.373 3092.34 109.92C3084.96 106.373 3079.13 101.427 3074.84 95.08C3070.64 88.7333 3068.54 81.36 3068.54 72.96C3068.54 64.6533 3070.54 57.3733 3074.56 51.12C3078.66 44.8667 3084.26 40.0133 3091.36 36.56C3098.45 33.0133 3106.52 31.24 3115.58 31.24C3124.82 31.24 3132.75 33.2933 3139.38 37.4C3146 41.4133 3151.09 47.1067 3154.64 54.48C3158.28 61.8533 3160.1 70.5333 3160.1 80.52H3087.3V64.98H3147.5L3138.4 70.58C3138.02 65.9133 3136.86 61.9467 3134.9 58.68C3133.03 55.4133 3130.46 52.8933 3127.2 51.12C3123.93 49.3467 3120.1 48.46 3115.72 48.46C3110.96 48.46 3106.8 49.44 3103.26 51.4C3099.8 53.2667 3097.1 55.9267 3095.14 59.38C3093.27 62.74 3092.34 66.7067 3092.34 71.28C3092.34 76.7867 3093.55 81.5 3095.98 85.42C3098.4 89.34 3101.95 92.3267 3106.62 94.38C3111.28 96.4333 3116.93 97.46 3123.56 97.46C3129.53 97.46 3135.55 96.62 3141.62 94.94C3147.68 93.1667 3153.14 90.6933 3158 87.52V103.2C3152.77 106.933 3146.66 109.873 3139.66 112.02C3132.75 114.073 3125.42 115.1 3117.68 115.1Z" fill="#284F06"/>
</svg>
